<svg xmlns="http://www.w3.org/2000/svg" viewBox="0 0 24 24" fill="currentColor">
  <path d="M12.7202 10.9231L15.7442 7.68312L4.00817 1.34712C3.93617 1.27512 3.79217 1.27512 3.57617 1.20312L12.7202 10.9231Z"/>
  <path d="M17.0403 15.5984L21.2882 13.2944C21.7922 13.0064 22.0802 12.5744 22.0802 11.9984C22.0802 11.4224 21.7922 10.9184 21.2882 10.7024L17.0403 8.39844L13.6562 11.9984L17.0403 15.5984Z"/>
  <path d="M2.20792 1.85156C1.99192 2.06756 1.91992 2.35556 1.91992 2.64356V21.3636C1.91992 21.6516 1.99192 21.9396 2.20792 22.2276L11.7119 12.0036L2.20792 1.85156Z"/>
  <path d="M12.7202 13.0781L3.57617 22.7981C3.72017 22.7981 3.86417 22.7261 4.00817 22.6541L15.7442 16.3181L12.7202 13.0781Z"/>
</svg>
